<mxfile host="www.draw.io" modified="2019-11-26T14:56:17.225Z" agent="Mozilla/5.0 (Macintosh; Intel Mac OS X 10_14_6) AppleWebKit/537.36 (KHTML, like Gecko) Chrome/78.0.3904.108 Safari/537.36" etag="0Z0e7ViDobdU3Qb6R6aS" version="12.3.1" type="github" pages="1">
  <diagram name="Page-1" id="edf60f1a-56cd-e834-aa8a-f176f3a09ee4">
    <mxGraphModel dx="2046" dy="554" grid="1" gridSize="10" guides="1" tooltips="1" connect="1" arrows="1" fold="1" page="1" pageScale="1" pageWidth="1100" pageHeight="850" background="#ffffff" math="0" shadow="0">
      <root>
        <mxCell id="0"/>
        <mxCell id="1" parent="0"/>
        <mxCell id="60e70716793133e9-32" style="edgeStyle=orthogonalEdgeStyle;rounded=0;html=1;labelBackgroundColor=none;startSize=5;endArrow=classicThin;endFill=1;endSize=5;jettySize=auto;orthogonalLoop=1;strokeWidth=1;fontFamily=Verdana;fontSize=8" parent="1" source="60e70716793133e9-4" target="60e70716793133e9-5" edge="1">
          <mxGeometry relative="1" as="geometry"/>
        </mxCell>
        <mxCell id="60e70716793133e9-4" value="Open input file" style="rounded=0;whiteSpace=wrap;html=1;shadow=1;labelBackgroundColor=none;strokeWidth=1;fontFamily=Verdana;fontSize=8;align=center;" parent="1" vertex="1">
          <mxGeometry x="165" y="90" width="120" height="30" as="geometry"/>
        </mxCell>
        <mxCell id="60e70716793133e9-33" value="Yes" style="edgeStyle=orthogonalEdgeStyle;rounded=0;html=1;labelBackgroundColor=none;startSize=5;endArrow=classicThin;endFill=1;endSize=5;jettySize=auto;orthogonalLoop=1;strokeWidth=1;fontFamily=Verdana;fontSize=8" parent="1" source="60e70716793133e9-5" target="60e70716793133e9-7" edge="1">
          <mxGeometry x="-0.7778" y="10" relative="1" as="geometry">
            <mxPoint as="offset"/>
          </mxGeometry>
        </mxCell>
        <mxCell id="60e70716793133e9-37" value="No" style="edgeStyle=orthogonalEdgeStyle;rounded=0;html=1;labelBackgroundColor=none;startSize=5;endArrow=classicThin;endFill=1;endSize=5;jettySize=auto;orthogonalLoop=1;strokeWidth=1;fontFamily=Verdana;fontSize=8" parent="1" source="60e70716793133e9-5" target="60e70716793133e9-9" edge="1">
          <mxGeometry x="-0.5" y="10" relative="1" as="geometry">
            <mxPoint as="offset"/>
          </mxGeometry>
        </mxCell>
        <mxCell id="60e70716793133e9-5" value="input has next line or rbtree is not null" style="rhombus;whiteSpace=wrap;html=1;rounded=0;shadow=1;labelBackgroundColor=none;strokeWidth=1;fontFamily=Verdana;fontSize=8;align=center;" parent="1" vertex="1">
          <mxGeometry x="150" y="200" width="150" height="80" as="geometry"/>
        </mxCell>
        <mxCell id="60e70716793133e9-34" value="Yes" style="edgeStyle=orthogonalEdgeStyle;rounded=0;html=1;labelBackgroundColor=none;startSize=5;endArrow=classicThin;endFill=1;endSize=5;jettySize=auto;orthogonalLoop=1;strokeWidth=1;fontFamily=Verdana;fontSize=8" parent="1" source="60e70716793133e9-7" target="60e70716793133e9-8" edge="1">
          <mxGeometry x="-0.6667" y="10" relative="1" as="geometry">
            <mxPoint as="offset"/>
          </mxGeometry>
        </mxCell>
        <mxCell id="60e70716793133e9-35" value="No" style="edgeStyle=orthogonalEdgeStyle;rounded=0;html=1;labelBackgroundColor=none;startSize=5;endArrow=classicThin;endFill=1;endSize=5;jettySize=auto;orthogonalLoop=1;strokeWidth=1;fontFamily=Verdana;fontSize=8;entryX=0.5;entryY=0;entryDx=0;entryDy=0;" parent="1" source="60e70716793133e9-7" target="sSRe9pO5_o0T26NJTr9f-2" edge="1">
          <mxGeometry y="-10" relative="1" as="geometry">
            <mxPoint x="470" y="310" as="targetPoint"/>
            <Array as="points"/>
            <mxPoint as="offset"/>
          </mxGeometry>
        </mxCell>
        <mxCell id="60e70716793133e9-7" value="inputMessage is null" style="rhombus;whiteSpace=wrap;html=1;rounded=0;shadow=1;labelBackgroundColor=none;strokeWidth=1;fontFamily=Verdana;fontSize=8;align=center;" parent="1" vertex="1">
          <mxGeometry x="390" y="210" width="160" height="60" as="geometry"/>
        </mxCell>
        <mxCell id="60e70716793133e9-36" style="edgeStyle=orthogonalEdgeStyle;rounded=0;html=1;labelBackgroundColor=none;startSize=5;endArrow=classicThin;endFill=1;endSize=5;jettySize=auto;orthogonalLoop=1;strokeWidth=1;fontFamily=Verdana;fontSize=8;exitX=0.5;exitY=1;exitDx=0;exitDy=0;entryX=1;entryY=0.5;entryDx=0;entryDy=0;" parent="1" source="60e70716793133e9-8" target="sSRe9pO5_o0T26NJTr9f-2" edge="1">
          <mxGeometry relative="1" as="geometry">
            <Array as="points">
              <mxPoint x="710" y="325"/>
            </Array>
            <mxPoint x="530" y="330" as="targetPoint"/>
          </mxGeometry>
        </mxCell>
        <mxCell id="60e70716793133e9-8" value="read in a line" style="rounded=1;whiteSpace=wrap;html=1;shadow=1;labelBackgroundColor=none;strokeWidth=1;fontFamily=Verdana;fontSize=8;align=center;" parent="1" vertex="1">
          <mxGeometry x="660" y="220" width="100" height="40" as="geometry"/>
        </mxCell>
        <mxCell id="60e70716793133e9-9" value="end" style="whiteSpace=wrap;html=1;rounded=0;shadow=1;labelBackgroundColor=none;strokeWidth=1;fontFamily=Verdana;fontSize=8;align=center;" parent="1" vertex="1">
          <mxGeometry x="165" y="320" width="120" height="40" as="geometry"/>
        </mxCell>
        <mxCell id="60e70716793133e9-51" value="Yes" style="edgeStyle=orthogonalEdgeStyle;rounded=0;html=1;labelBackgroundColor=none;startSize=5;endArrow=classicThin;endFill=1;endSize=5;jettySize=auto;orthogonalLoop=1;strokeWidth=1;fontFamily=Verdana;fontSize=8" parent="1" source="60e70716793133e9-21" edge="1">
          <mxGeometry x="-0.6924" y="-20" relative="1" as="geometry">
            <Array as="points">
              <mxPoint y="979.9999999999998"/>
              <mxPoint y="780"/>
            </Array>
            <mxPoint as="offset"/>
            <mxPoint x="30" y="780" as="targetPoint"/>
          </mxGeometry>
        </mxCell>
        <mxCell id="sSRe9pO5_o0T26NJTr9f-37" value="No" style="edgeStyle=orthogonalEdgeStyle;rounded=0;orthogonalLoop=1;jettySize=auto;html=1;exitX=0;exitY=0.5;exitDx=0;exitDy=0;" edge="1" parent="1" source="sSRe9pO5_o0T26NJTr9f-2" target="sSRe9pO5_o0T26NJTr9f-39">
          <mxGeometry relative="1" as="geometry">
            <mxPoint x="300" y="420" as="targetPoint"/>
          </mxGeometry>
        </mxCell>
        <mxCell id="sSRe9pO5_o0T26NJTr9f-61" value="Yes" style="edgeStyle=orthogonalEdgeStyle;rounded=0;orthogonalLoop=1;jettySize=auto;html=1;entryX=0.5;entryY=0;entryDx=0;entryDy=0;" edge="1" parent="1" source="sSRe9pO5_o0T26NJTr9f-2" target="sSRe9pO5_o0T26NJTr9f-3">
          <mxGeometry relative="1" as="geometry"/>
        </mxCell>
        <mxCell id="sSRe9pO5_o0T26NJTr9f-2" value="globalTime=inputTime" style="rhombus;whiteSpace=wrap;html=1;" vertex="1" parent="1">
          <mxGeometry x="395" y="300" width="150" height="50" as="geometry"/>
        </mxCell>
        <mxCell id="sSRe9pO5_o0T26NJTr9f-5" style="edgeStyle=orthogonalEdgeStyle;rounded=0;orthogonalLoop=1;jettySize=auto;html=1;exitX=1;exitY=0.5;exitDx=0;exitDy=0;" edge="1" parent="1" source="sSRe9pO5_o0T26NJTr9f-3" target="sSRe9pO5_o0T26NJTr9f-6">
          <mxGeometry relative="1" as="geometry">
            <mxPoint x="680" y="410" as="targetPoint"/>
          </mxGeometry>
        </mxCell>
        <mxCell id="sSRe9pO5_o0T26NJTr9f-7" value="Yes" style="text;html=1;align=center;verticalAlign=middle;resizable=0;points=[];;labelBackgroundColor=#ffffff;" vertex="1" connectable="0" parent="sSRe9pO5_o0T26NJTr9f-5">
          <mxGeometry x="-0.1429" y="1" relative="1" as="geometry">
            <mxPoint as="offset"/>
          </mxGeometry>
        </mxCell>
        <mxCell id="sSRe9pO5_o0T26NJTr9f-8" style="edgeStyle=orthogonalEdgeStyle;rounded=0;orthogonalLoop=1;jettySize=auto;html=1;exitX=0.5;exitY=1;exitDx=0;exitDy=0;" edge="1" parent="1" source="sSRe9pO5_o0T26NJTr9f-3" target="sSRe9pO5_o0T26NJTr9f-12">
          <mxGeometry relative="1" as="geometry">
            <mxPoint x="470" y="520" as="targetPoint"/>
          </mxGeometry>
        </mxCell>
        <mxCell id="sSRe9pO5_o0T26NJTr9f-9" value="No" style="text;html=1;align=center;verticalAlign=middle;resizable=0;points=[];;labelBackgroundColor=#ffffff;" vertex="1" connectable="0" parent="sSRe9pO5_o0T26NJTr9f-8">
          <mxGeometry x="-0.0571" y="-2" relative="1" as="geometry">
            <mxPoint as="offset"/>
          </mxGeometry>
        </mxCell>
        <mxCell id="sSRe9pO5_o0T26NJTr9f-3" value="a building is being built" style="rhombus;whiteSpace=wrap;html=1;" vertex="1" parent="1">
          <mxGeometry x="395" y="380" width="150" height="60" as="geometry"/>
        </mxCell>
        <mxCell id="sSRe9pO5_o0T26NJTr9f-13" style="edgeStyle=orthogonalEdgeStyle;rounded=0;orthogonalLoop=1;jettySize=auto;html=1;exitX=0.5;exitY=1;exitDx=0;exitDy=0;entryX=1;entryY=0.5;entryDx=0;entryDy=0;" edge="1" parent="1" source="sSRe9pO5_o0T26NJTr9f-6" target="sSRe9pO5_o0T26NJTr9f-12">
          <mxGeometry relative="1" as="geometry"/>
        </mxCell>
        <mxCell id="sSRe9pO5_o0T26NJTr9f-6" value="build for a day" style="rounded=1;whiteSpace=wrap;html=1;arcSize=20;" vertex="1" parent="1">
          <mxGeometry x="650" y="385" width="110" height="50" as="geometry"/>
        </mxCell>
        <mxCell id="sSRe9pO5_o0T26NJTr9f-14" style="edgeStyle=orthogonalEdgeStyle;rounded=0;orthogonalLoop=1;jettySize=auto;html=1;exitX=0.5;exitY=1;exitDx=0;exitDy=0;entryX=0.5;entryY=0;entryDx=0;entryDy=0;" edge="1" parent="1" source="sSRe9pO5_o0T26NJTr9f-12" target="sSRe9pO5_o0T26NJTr9f-31">
          <mxGeometry relative="1" as="geometry">
            <mxPoint x="470" y="600" as="targetPoint"/>
          </mxGeometry>
        </mxCell>
        <mxCell id="sSRe9pO5_o0T26NJTr9f-12" value="execute input command" style="rounded=0;whiteSpace=wrap;html=1;" vertex="1" parent="1">
          <mxGeometry x="410" y="490" width="120" height="60" as="geometry"/>
        </mxCell>
        <mxCell id="sSRe9pO5_o0T26NJTr9f-18" style="edgeStyle=orthogonalEdgeStyle;rounded=0;orthogonalLoop=1;jettySize=auto;html=1;" edge="1" parent="1" source="sSRe9pO5_o0T26NJTr9f-15" target="sSRe9pO5_o0T26NJTr9f-19">
          <mxGeometry relative="1" as="geometry">
            <mxPoint x="700" y="700" as="targetPoint"/>
          </mxGeometry>
        </mxCell>
        <mxCell id="sSRe9pO5_o0T26NJTr9f-20" value="Yes" style="text;html=1;align=center;verticalAlign=middle;resizable=0;points=[];;labelBackgroundColor=#ffffff;" vertex="1" connectable="0" parent="sSRe9pO5_o0T26NJTr9f-18">
          <mxGeometry x="-0.0105" y="-3" relative="1" as="geometry">
            <mxPoint as="offset"/>
          </mxGeometry>
        </mxCell>
        <mxCell id="sSRe9pO5_o0T26NJTr9f-21" style="edgeStyle=orthogonalEdgeStyle;rounded=0;orthogonalLoop=1;jettySize=auto;html=1;exitX=0.5;exitY=1;exitDx=0;exitDy=0;" edge="1" parent="1" source="sSRe9pO5_o0T26NJTr9f-15" target="sSRe9pO5_o0T26NJTr9f-22">
          <mxGeometry relative="1" as="geometry">
            <mxPoint x="470" y="780" as="targetPoint"/>
          </mxGeometry>
        </mxCell>
        <mxCell id="sSRe9pO5_o0T26NJTr9f-24" value="No" style="text;html=1;align=center;verticalAlign=middle;resizable=0;points=[];;labelBackgroundColor=#ffffff;" vertex="1" connectable="0" parent="sSRe9pO5_o0T26NJTr9f-21">
          <mxGeometry x="-0.04" y="1" relative="1" as="geometry">
            <mxPoint as="offset"/>
          </mxGeometry>
        </mxCell>
        <mxCell id="sSRe9pO5_o0T26NJTr9f-15" value="current building is finished" style="rhombus;whiteSpace=wrap;html=1;" vertex="1" parent="1">
          <mxGeometry x="395" y="670" width="150" height="60" as="geometry"/>
        </mxCell>
        <mxCell id="sSRe9pO5_o0T26NJTr9f-25" style="edgeStyle=orthogonalEdgeStyle;rounded=0;orthogonalLoop=1;jettySize=auto;html=1;entryX=0.5;entryY=0;entryDx=0;entryDy=0;exitX=1;exitY=0.5;exitDx=0;exitDy=0;" edge="1" parent="1" source="sSRe9pO5_o0T26NJTr9f-19" target="60e70716793133e9-5">
          <mxGeometry relative="1" as="geometry">
            <Array as="points">
              <mxPoint x="860" y="700"/>
              <mxPoint x="860" y="180"/>
              <mxPoint x="225" y="180"/>
            </Array>
          </mxGeometry>
        </mxCell>
        <mxCell id="sSRe9pO5_o0T26NJTr9f-19" value="output, delete node, get the root of minheap" style="rounded=0;whiteSpace=wrap;html=1;" vertex="1" parent="1">
          <mxGeometry x="640" y="670" width="120" height="60" as="geometry"/>
        </mxCell>
        <mxCell id="sSRe9pO5_o0T26NJTr9f-26" style="edgeStyle=orthogonalEdgeStyle;rounded=0;orthogonalLoop=1;jettySize=auto;html=1;exitX=1;exitY=0.5;exitDx=0;exitDy=0;" edge="1" parent="1" source="sSRe9pO5_o0T26NJTr9f-22" target="sSRe9pO5_o0T26NJTr9f-27">
          <mxGeometry relative="1" as="geometry">
            <mxPoint x="670" y="815" as="targetPoint"/>
          </mxGeometry>
        </mxCell>
        <mxCell id="sSRe9pO5_o0T26NJTr9f-28" value="Yes" style="text;html=1;align=center;verticalAlign=middle;resizable=0;points=[];;labelBackgroundColor=#ffffff;" vertex="1" connectable="0" parent="sSRe9pO5_o0T26NJTr9f-26">
          <mxGeometry x="-0.6333" y="1" relative="1" as="geometry">
            <mxPoint x="28" y="1" as="offset"/>
          </mxGeometry>
        </mxCell>
        <mxCell id="sSRe9pO5_o0T26NJTr9f-22" value="curernt building built for 5 days" style="rhombus;whiteSpace=wrap;html=1;" vertex="1" parent="1">
          <mxGeometry x="390" y="780" width="160" height="70" as="geometry"/>
        </mxCell>
        <mxCell id="sSRe9pO5_o0T26NJTr9f-29" style="edgeStyle=orthogonalEdgeStyle;rounded=0;orthogonalLoop=1;jettySize=auto;html=1;exitX=1;exitY=0.5;exitDx=0;exitDy=0;" edge="1" parent="1" source="sSRe9pO5_o0T26NJTr9f-27" target="sSRe9pO5_o0T26NJTr9f-30">
          <mxGeometry relative="1" as="geometry">
            <mxPoint x="850" y="815" as="targetPoint"/>
          </mxGeometry>
        </mxCell>
        <mxCell id="sSRe9pO5_o0T26NJTr9f-27" value="insert current building into min hep&lt;br&gt;" style="rounded=0;whiteSpace=wrap;html=1;" vertex="1" parent="1">
          <mxGeometry x="640" y="785" width="120" height="60" as="geometry"/>
        </mxCell>
        <mxCell id="sSRe9pO5_o0T26NJTr9f-36" style="edgeStyle=orthogonalEdgeStyle;rounded=0;orthogonalLoop=1;jettySize=auto;html=1;exitX=1;exitY=0.5;exitDx=0;exitDy=0;" edge="1" parent="1" source="sSRe9pO5_o0T26NJTr9f-30">
          <mxGeometry relative="1" as="geometry">
            <mxPoint x="860" y="180" as="targetPoint"/>
            <Array as="points">
              <mxPoint x="930" y="815"/>
              <mxPoint x="930" y="180"/>
            </Array>
          </mxGeometry>
        </mxCell>
        <mxCell id="sSRe9pO5_o0T26NJTr9f-30" value="get the root of min heap" style="rounded=0;whiteSpace=wrap;html=1;" vertex="1" parent="1">
          <mxGeometry x="790" y="785" width="120" height="60" as="geometry"/>
        </mxCell>
        <mxCell id="sSRe9pO5_o0T26NJTr9f-32" style="edgeStyle=orthogonalEdgeStyle;rounded=0;orthogonalLoop=1;jettySize=auto;html=1;entryX=0.5;entryY=0;entryDx=0;entryDy=0;" edge="1" parent="1" source="sSRe9pO5_o0T26NJTr9f-31" target="sSRe9pO5_o0T26NJTr9f-15">
          <mxGeometry relative="1" as="geometry"/>
        </mxCell>
        <mxCell id="sSRe9pO5_o0T26NJTr9f-33" value="Yes" style="text;html=1;align=center;verticalAlign=middle;resizable=0;points=[];;labelBackgroundColor=#ffffff;" vertex="1" connectable="0" parent="sSRe9pO5_o0T26NJTr9f-32">
          <mxGeometry x="0.24" y="-4" relative="1" as="geometry">
            <mxPoint as="offset"/>
          </mxGeometry>
        </mxCell>
        <mxCell id="sSRe9pO5_o0T26NJTr9f-34" style="edgeStyle=orthogonalEdgeStyle;rounded=0;orthogonalLoop=1;jettySize=auto;html=1;" edge="1" parent="1" source="sSRe9pO5_o0T26NJTr9f-31">
          <mxGeometry relative="1" as="geometry">
            <mxPoint x="860" y="610" as="targetPoint"/>
          </mxGeometry>
        </mxCell>
        <mxCell id="sSRe9pO5_o0T26NJTr9f-35" value="No" style="text;html=1;align=center;verticalAlign=middle;resizable=0;points=[];;labelBackgroundColor=#ffffff;" vertex="1" connectable="0" parent="sSRe9pO5_o0T26NJTr9f-34">
          <mxGeometry x="0.1683" y="-3" relative="1" as="geometry">
            <mxPoint x="-24" y="-3" as="offset"/>
          </mxGeometry>
        </mxCell>
        <mxCell id="sSRe9pO5_o0T26NJTr9f-31" value="a building is being built" style="rhombus;whiteSpace=wrap;html=1;" vertex="1" parent="1">
          <mxGeometry x="395" y="580" width="150" height="60" as="geometry"/>
        </mxCell>
        <mxCell id="sSRe9pO5_o0T26NJTr9f-40" value="Yes" style="edgeStyle=orthogonalEdgeStyle;rounded=0;orthogonalLoop=1;jettySize=auto;html=1;" edge="1" parent="1" source="sSRe9pO5_o0T26NJTr9f-39">
          <mxGeometry relative="1" as="geometry">
            <mxPoint x="300" y="520" as="targetPoint"/>
          </mxGeometry>
        </mxCell>
        <mxCell id="sSRe9pO5_o0T26NJTr9f-45" style="edgeStyle=orthogonalEdgeStyle;rounded=0;orthogonalLoop=1;jettySize=auto;html=1;exitX=0;exitY=0.5;exitDx=0;exitDy=0;" edge="1" parent="1" source="sSRe9pO5_o0T26NJTr9f-39" target="sSRe9pO5_o0T26NJTr9f-46">
          <mxGeometry relative="1" as="geometry">
            <mxPoint x="110" y="450" as="targetPoint"/>
          </mxGeometry>
        </mxCell>
        <mxCell id="sSRe9pO5_o0T26NJTr9f-58" value="No" style="text;html=1;align=center;verticalAlign=middle;resizable=0;points=[];;labelBackgroundColor=#ffffff;" vertex="1" connectable="0" parent="sSRe9pO5_o0T26NJTr9f-45">
          <mxGeometry x="-0.1467" relative="1" as="geometry">
            <mxPoint as="offset"/>
          </mxGeometry>
        </mxCell>
        <mxCell id="sSRe9pO5_o0T26NJTr9f-39" value="a building is being built" style="rhombus;whiteSpace=wrap;html=1;" vertex="1" parent="1">
          <mxGeometry x="225" y="420" width="150" height="60" as="geometry"/>
        </mxCell>
        <mxCell id="sSRe9pO5_o0T26NJTr9f-42" value="Yes" style="edgeStyle=orthogonalEdgeStyle;rounded=0;orthogonalLoop=1;jettySize=auto;html=1;exitX=0.5;exitY=1;exitDx=0;exitDy=0;" edge="1" parent="1" source="sSRe9pO5_o0T26NJTr9f-41">
          <mxGeometry relative="1" as="geometry">
            <mxPoint x="300" y="640" as="targetPoint"/>
          </mxGeometry>
        </mxCell>
        <mxCell id="sSRe9pO5_o0T26NJTr9f-41" value="current building will finish today" style="rhombus;whiteSpace=wrap;html=1;" vertex="1" parent="1">
          <mxGeometry x="225" y="520" width="150" height="60" as="geometry"/>
        </mxCell>
        <mxCell id="sSRe9pO5_o0T26NJTr9f-44" style="edgeStyle=orthogonalEdgeStyle;rounded=0;orthogonalLoop=1;jettySize=auto;html=1;" edge="1" parent="1" source="sSRe9pO5_o0T26NJTr9f-43">
          <mxGeometry relative="1" as="geometry">
            <mxPoint x="932" y="600" as="targetPoint"/>
            <Array as="points">
              <mxPoint x="300" y="880"/>
              <mxPoint x="930" y="880"/>
              <mxPoint x="930" y="600"/>
            </Array>
          </mxGeometry>
        </mxCell>
        <mxCell id="sSRe9pO5_o0T26NJTr9f-43" value="output, delete node, get the root of minheap" style="rounded=0;whiteSpace=wrap;html=1;" vertex="1" parent="1">
          <mxGeometry x="240" y="640" width="120" height="60" as="geometry"/>
        </mxCell>
        <mxCell id="sSRe9pO5_o0T26NJTr9f-48" value="No" style="edgeStyle=orthogonalEdgeStyle;rounded=0;orthogonalLoop=1;jettySize=auto;html=1;" edge="1" parent="1" source="sSRe9pO5_o0T26NJTr9f-46" target="sSRe9pO5_o0T26NJTr9f-49">
          <mxGeometry relative="1" as="geometry">
            <mxPoint x="85" y="560" as="targetPoint"/>
          </mxGeometry>
        </mxCell>
        <mxCell id="sSRe9pO5_o0T26NJTr9f-53" style="edgeStyle=orthogonalEdgeStyle;rounded=0;orthogonalLoop=1;jettySize=auto;html=1;" edge="1" parent="1" source="sSRe9pO5_o0T26NJTr9f-46">
          <mxGeometry relative="1" as="geometry">
            <mxPoint x="85" y="880" as="targetPoint"/>
            <Array as="points">
              <mxPoint x="-40" y="450"/>
              <mxPoint x="-40" y="880"/>
            </Array>
          </mxGeometry>
        </mxCell>
        <mxCell id="sSRe9pO5_o0T26NJTr9f-54" value="Yes" style="text;html=1;align=center;verticalAlign=middle;resizable=0;points=[];;labelBackgroundColor=#ffffff;" vertex="1" connectable="0" parent="sSRe9pO5_o0T26NJTr9f-53">
          <mxGeometry x="-0.3" y="1" relative="1" as="geometry">
            <mxPoint as="offset"/>
          </mxGeometry>
        </mxCell>
        <mxCell id="sSRe9pO5_o0T26NJTr9f-46" value="min heap is empty" style="rhombus;whiteSpace=wrap;html=1;" vertex="1" parent="1">
          <mxGeometry x="20" y="415" width="130" height="70" as="geometry"/>
        </mxCell>
        <mxCell id="sSRe9pO5_o0T26NJTr9f-50" style="edgeStyle=orthogonalEdgeStyle;rounded=0;orthogonalLoop=1;jettySize=auto;html=1;" edge="1" parent="1" source="sSRe9pO5_o0T26NJTr9f-49" target="sSRe9pO5_o0T26NJTr9f-51">
          <mxGeometry relative="1" as="geometry">
            <mxPoint x="85" y="610" as="targetPoint"/>
          </mxGeometry>
        </mxCell>
        <mxCell id="sSRe9pO5_o0T26NJTr9f-49" value="get the root of minheap" style="rounded=0;whiteSpace=wrap;html=1;" vertex="1" parent="1">
          <mxGeometry x="25" y="530" width="120" height="40" as="geometry"/>
        </mxCell>
        <mxCell id="sSRe9pO5_o0T26NJTr9f-52" style="edgeStyle=orthogonalEdgeStyle;rounded=0;orthogonalLoop=1;jettySize=auto;html=1;" edge="1" parent="1" source="sSRe9pO5_o0T26NJTr9f-51">
          <mxGeometry relative="1" as="geometry">
            <mxPoint x="300" y="880" as="targetPoint"/>
            <Array as="points">
              <mxPoint x="85" y="880"/>
            </Array>
          </mxGeometry>
        </mxCell>
        <mxCell id="sSRe9pO5_o0T26NJTr9f-51" value="build for one day" style="rounded=0;whiteSpace=wrap;html=1;" vertex="1" parent="1">
          <mxGeometry x="25" y="630" width="120" height="40" as="geometry"/>
        </mxCell>
        <mxCell id="sSRe9pO5_o0T26NJTr9f-60" value="globalTime++" style="rounded=0;whiteSpace=wrap;html=1;" vertex="1" parent="1">
          <mxGeometry x="585" y="160" width="120" height="40" as="geometry"/>
        </mxCell>
      </root>
    </mxGraphModel>
  </diagram>
</mxfile>
